<svg width="566" height="200" viewBox="0 0 566 200" fill="none" xmlns="http://www.w3.org/2000/svg">
<g clip-path="url(#clip0_280_4983)">
<path fill-rule="evenodd" clip-rule="evenodd" d="M122.51 9.37258C110.013 -3.12419 89.7516 -3.1242 77.2548 9.37258L9.37258 77.2548C-3.12419 89.7516 -3.1242 110.013 9.37258 122.51L77.2548 190.392C89.7516 202.889 110.013 202.889 122.51 190.392L190.392 122.51C202.889 110.013 202.889 89.7516 190.392 77.2548L122.51 9.37258ZM72.2075 106.478C72.194 108.815 72.2345 111.164 72.4775 113.5C72.519 113.88 72.571 114.26 72.6228 114.638L72.6229 114.638L72.6229 114.639C72.6724 115 72.7216 115.359 72.7611 115.715C72.5667 115.844 72.3722 115.836 72.1778 115.827C72.1659 115.826 72.1541 115.826 72.1423 115.825C72.1055 115.824 72.0687 115.823 72.0319 115.823H63.7005C63.6645 115.823 63.6285 115.821 63.5925 115.82C63.5205 115.817 63.4484 115.814 63.3764 115.823C63.0253 115.863 62.9173 115.688 62.9038 115.35C62.8796 114.656 62.8409 113.967 62.8022 113.277L62.8022 113.277L62.8022 113.276L62.8021 113.275C62.7761 112.811 62.75 112.347 62.7283 111.88C62.7195 111.696 62.7221 111.512 62.725 111.306V111.306C62.7266 111.194 62.7283 111.076 62.7283 110.948C62.3895 111.064 62.2665 111.272 62.1512 111.467C62.1194 111.521 62.0881 111.574 62.0531 111.623C60.6893 113.568 59.0149 115.107 56.7329 115.917C55.315 116.43 53.8432 116.619 52.3579 116.579C50.1974 116.525 48.0774 116.16 46.1059 115.188C43.2973 113.811 41.5554 111.637 41.0422 108.517C41.0017 108.274 40.9612 108.031 40.7452 107.869V105.439C40.984 105.314 41.0121 105.083 41.0392 104.86C41.0424 104.834 41.0455 104.809 41.0489 104.784C41.051 104.768 41.0533 104.752 41.0557 104.737C41.5418 101.887 43.1352 99.8079 45.6063 98.3901C47.5507 97.2693 49.6842 96.6887 51.8853 96.3646C55.072 95.892 58.2722 95.8515 61.4725 96.3241C62.1206 96.4186 62.1746 96.3781 62.1071 95.7165C61.9181 93.8801 61.0809 92.5027 59.366 91.7196C58.5558 91.3415 57.6916 91.1119 56.8004 91.0444C53.2896 90.7878 49.8463 91.1389 46.565 92.5027C46.2936 92.6201 46.0302 92.7454 45.7683 92.8701L45.7679 92.8702L45.7673 92.8705C45.5474 92.9752 45.3284 93.0793 45.1067 93.1779C44.9151 93.0715 44.9332 92.9148 44.9495 92.7738C44.9539 92.7359 44.9581 92.6991 44.9581 92.6648L44.954 92.5111C44.9014 90.5645 44.8491 88.6301 44.8096 86.6829C44.7962 85.9994 44.8094 85.9943 45.4168 85.7566L45.4308 85.7512C48.0909 84.7249 50.859 84.1578 53.6947 83.9147C55.7607 83.7392 57.8266 83.6717 59.9061 83.9012C62.3097 84.1713 64.6187 84.7384 66.7252 85.9942C69.7364 87.7901 71.3838 90.4773 71.9914 93.8666C72.167 94.7983 72.2075 95.7435 72.2075 96.6887V106.478ZM51.1156 106.857C51.5207 108.139 52.4929 108.842 53.7352 109.139C58.8124 110.381 61.9721 106.168 62.1341 102.347C62.1476 102.049 62.0531 101.914 61.729 101.901C61.0958 101.874 60.4658 101.844 59.8359 101.813L59.8318 101.813C59.2006 101.783 58.5693 101.752 57.9347 101.725C57.1245 101.685 56.3143 101.779 55.5176 101.887C54.4373 102.022 53.3976 102.306 52.4929 102.941C51.2236 103.818 50.6565 105.412 51.1156 106.857ZM101.415 93.3265C101.037 93.1374 100.686 92.9619 100.308 92.7998C97.877 91.7196 95.3384 91.3685 92.7323 91.9761C89.424 92.7593 87.1825 95.3519 86.7234 98.7142C86.4938 100.375 86.5478 102.009 87.2365 103.548C88.5328 106.452 90.8823 108.018 93.9475 108.517C96.5131 108.923 98.9977 108.504 101.401 107.572C101.513 107.529 101.625 107.482 101.734 107.437C101.862 107.384 101.987 107.332 102.103 107.289C102.269 107.333 102.272 107.422 102.275 107.505C102.276 107.517 102.276 107.528 102.277 107.54C102.277 107.546 102.278 107.553 102.279 107.559C102.301 108.334 102.322 109.109 102.343 109.883C102.385 111.452 102.427 113.02 102.482 114.594C102.495 115.053 102.346 115.256 101.901 115.391C100.213 115.89 98.4981 116.214 96.7562 116.417C93.4479 116.795 90.1802 116.592 86.9934 115.634C83.3746 114.54 80.3364 112.595 78.1489 109.463C76.6365 107.289 75.8398 104.858 75.5428 102.239C75.2592 99.6189 75.4888 97.0668 76.3259 94.5823C77.8383 90.1532 80.9035 87.1555 85.184 85.3866C88.4518 84.0363 91.8816 83.6177 95.4059 83.8608C97.5259 84.0093 99.5783 84.3874 101.536 85.2111C102.281 85.5246 102.28 85.5348 102.206 86.2566L102.198 86.3318C101.995 88.2898 101.806 90.2477 101.617 92.2057C101.613 92.2662 101.609 92.3275 101.606 92.3896C101.589 92.6875 101.571 93.0024 101.415 93.3265ZM116.459 89.8571C116.402 89.9836 116.336 90.1297 116.066 90.1532V85.2921C116.066 84.5494 116.066 84.5359 115.323 84.5359H106.992C106.235 84.5359 106.222 84.5359 106.222 85.2786V115.148C106.222 115.836 106.235 115.85 106.938 115.85H116.322C117.024 115.85 117.024 115.836 117.038 115.148L117.038 115.148V114.58V102.36C117.038 101.172 117.132 99.997 117.348 98.8222C117.605 97.3774 118.051 96.0001 118.942 94.7983C120.292 92.9889 122.48 92.5298 124.289 92.9213C125.747 93.2319 126.571 94.2852 127.057 95.622C127.476 96.7697 127.57 97.985 127.57 99.2003V114.823C127.57 114.886 127.572 114.949 127.573 115.012C127.576 115.138 127.579 115.265 127.57 115.391C127.543 115.755 127.732 115.863 128.056 115.836C128.147 115.827 128.237 115.83 128.327 115.833C128.372 115.835 128.417 115.836 128.462 115.836H137.522H138.008C138.278 115.85 138.4 115.715 138.386 115.445C138.377 115.319 138.38 115.193 138.383 115.066C138.385 115.003 138.386 114.94 138.386 114.877C138.386 113.554 138.388 112.231 138.389 110.91C138.392 108.267 138.395 105.627 138.386 102.981C138.386 101.82 138.413 100.659 138.575 99.5109C138.764 98.1335 139.089 96.8102 139.764 95.5815C140.412 94.4202 141.303 93.502 142.613 93.0969C145.57 92.1922 147.852 93.2049 148.608 96.3241C148.811 97.1748 148.905 98.0255 148.905 98.8897V114.837V115.485C148.905 115.701 148.986 115.836 149.229 115.836H149.716H158.857C159.325 115.836 159.542 115.849 159.641 115.748C159.742 115.645 159.721 115.422 159.721 114.945C159.721 113.153 159.72 111.363 159.718 109.573C159.715 105.994 159.712 102.418 159.721 98.8357C159.721 97.3774 159.681 95.9325 159.6 94.4742C159.532 93.0969 159.316 91.7331 158.938 90.4098C157.952 86.8989 155.67 84.7789 152.092 84.0903C150.229 83.7392 148.352 83.6447 146.461 83.9282C143.693 84.3468 141.263 85.4541 139.278 87.4931C138.779 88.0015 138.358 88.5712 137.938 89.1387C137.8 89.3248 137.662 89.5107 137.522 89.6941C137.342 89.5563 137.262 89.3768 137.183 89.2015C137.162 89.1535 137.14 89.1059 137.117 89.0594C135.983 86.7909 134.214 85.2651 131.837 84.4414C129.393 83.5907 126.909 83.5772 124.411 84.0903C120.94 84.806 118.199 86.6019 116.484 89.8021C116.476 89.8197 116.467 89.8382 116.459 89.8571Z" fill="white"/>
<path d="M216.501 66L224.693 43.6H229.301L237.493 66H233.141L231.349 60.816H222.613L220.789 66H216.501ZM223.733 57.616H230.229L226.965 48.304L223.733 57.616ZM246.842 66.384C245.434 66.384 244.197 66.16 243.13 65.712C242.063 65.2427 241.21 64.6027 240.57 63.792C239.93 62.9813 239.546 62.0427 239.418 60.976H243.546C243.674 61.5947 244.015 62.128 244.57 62.576C245.146 63.0027 245.882 63.216 246.778 63.216C247.674 63.216 248.325 63.0347 248.73 62.672C249.157 62.3093 249.37 61.8933 249.37 61.424C249.37 60.7413 249.071 60.2827 248.474 60.048C247.877 59.792 247.045 59.5467 245.978 59.312C245.295 59.1627 244.602 58.9813 243.898 58.768C243.194 58.5547 242.543 58.288 241.946 57.968C241.37 57.6267 240.901 57.2 240.538 56.688C240.175 56.1547 239.994 55.504 239.994 54.736C239.994 53.328 240.549 52.144 241.658 51.184C242.789 50.224 244.367 49.744 246.394 49.744C248.271 49.744 249.765 50.1813 250.874 51.056C252.005 51.9307 252.677 53.136 252.89 54.672H249.018C248.783 53.4987 247.898 52.912 246.362 52.912C245.594 52.912 244.997 53.0613 244.57 53.36C244.165 53.6587 243.962 54.032 243.962 54.48C243.962 54.9493 244.271 55.3227 244.89 55.6C245.509 55.8773 246.33 56.1333 247.354 56.368C248.463 56.624 249.477 56.912 250.394 57.232C251.333 57.5307 252.079 57.9893 252.634 58.608C253.189 59.2053 253.466 60.0693 253.466 61.2C253.487 62.1813 253.231 63.0667 252.698 63.856C252.165 64.6453 251.397 65.264 250.394 65.712C249.391 66.16 248.207 66.384 246.842 66.384ZM263.655 66.384C262.247 66.384 261.009 66.16 259.943 65.712C258.876 65.2427 258.023 64.6027 257.383 63.792C256.743 62.9813 256.359 62.0427 256.231 60.976H260.359C260.487 61.5947 260.828 62.128 261.383 62.576C261.959 63.0027 262.695 63.216 263.591 63.216C264.487 63.216 265.137 63.0347 265.543 62.672C265.969 62.3093 266.183 61.8933 266.183 61.424C266.183 60.7413 265.884 60.2827 265.287 60.048C264.689 59.792 263.857 59.5467 262.791 59.312C262.108 59.1627 261.415 58.9813 260.711 58.768C260.007 58.5547 259.356 58.288 258.759 57.968C258.183 57.6267 257.713 57.2 257.351 56.688C256.988 56.1547 256.807 55.504 256.807 54.736C256.807 53.328 257.361 52.144 258.471 51.184C259.601 50.224 261.18 49.744 263.207 49.744C265.084 49.744 266.577 50.1813 267.687 51.056C268.817 51.9307 269.489 53.136 269.703 54.672H265.831C265.596 53.4987 264.711 52.912 263.175 52.912C262.407 52.912 261.809 53.0613 261.383 53.36C260.977 53.6587 260.775 54.032 260.775 54.48C260.775 54.9493 261.084 55.3227 261.703 55.6C262.321 55.8773 263.143 56.1333 264.167 56.368C265.276 56.624 266.289 56.912 267.207 57.232C268.145 57.5307 268.892 57.9893 269.447 58.608C270.001 59.2053 270.279 60.0693 270.279 61.2C270.3 62.1813 270.044 63.0667 269.511 63.856C268.977 64.6453 268.209 65.264 267.207 65.712C266.204 66.16 265.02 66.384 263.655 66.384ZM281.523 66.384C279.987 66.384 278.6 66.032 277.363 65.328C276.147 64.624 275.176 63.6533 274.451 62.416C273.747 61.1573 273.395 59.7067 273.395 58.064C273.395 56.4213 273.758 54.9813 274.483 53.744C275.208 52.4853 276.179 51.504 277.395 50.8C278.632 50.096 280.019 49.744 281.555 49.744C283.07 49.744 284.435 50.096 285.651 50.8C286.888 51.504 287.859 52.4853 288.563 53.744C289.288 54.9813 289.651 56.4213 289.651 58.064C289.651 59.7067 289.288 61.1573 288.563 62.416C287.859 63.6533 286.888 64.624 285.651 65.328C284.414 66.032 283.038 66.384 281.523 66.384ZM281.523 62.832C282.59 62.832 283.518 62.4373 284.307 61.648C285.096 60.8373 285.491 59.6427 285.491 58.064C285.491 56.4853 285.096 55.3013 284.307 54.512C283.518 53.7013 282.6 53.296 281.555 53.296C280.467 53.296 279.528 53.7013 278.739 54.512C277.971 55.3013 277.587 56.4853 277.587 58.064C277.587 59.6427 277.971 60.8373 278.739 61.648C279.528 62.4373 280.456 62.832 281.523 62.832ZM301.089 66.384C299.468 66.384 298.039 66.032 296.801 65.328C295.564 64.624 294.583 63.6427 293.857 62.384C293.153 61.1253 292.801 59.6853 292.801 58.064C292.801 56.4427 293.153 55.0027 293.857 53.744C294.583 52.4853 295.564 51.504 296.801 50.8C298.039 50.096 299.468 49.744 301.089 49.744C303.116 49.744 304.823 50.2773 306.209 51.344C307.596 52.3893 308.481 53.84 308.865 55.696H304.545C304.332 54.928 303.905 54.3307 303.265 53.904C302.647 53.456 301.911 53.232 301.057 53.232C299.927 53.232 298.967 53.6587 298.177 54.512C297.388 55.3653 296.993 56.5493 296.993 58.064C296.993 59.5787 297.388 60.7627 298.177 61.616C298.967 62.4693 299.927 62.896 301.057 62.896C301.911 62.896 302.647 62.6827 303.265 62.256C303.905 61.8293 304.332 61.2213 304.545 60.432H308.865C308.481 62.224 307.596 63.664 306.209 64.752C304.823 65.84 303.116 66.384 301.089 66.384ZM314.709 47.664C313.962 47.664 313.344 47.44 312.853 46.992C312.384 46.544 312.149 45.9787 312.149 45.296C312.149 44.6133 312.384 44.0587 312.853 43.632C313.344 43.184 313.962 42.96 314.709 42.96C315.456 42.96 316.064 43.184 316.533 43.632C317.024 44.0587 317.269 44.6133 317.269 45.296C317.269 45.9787 317.024 46.544 316.533 46.992C316.064 47.44 315.456 47.664 314.709 47.664ZM312.661 66V50.128H316.757V66H312.661ZM326.504 66.384C325.139 66.384 324.019 66.1707 323.144 65.744C322.269 65.296 321.619 64.7093 321.192 63.984C320.765 63.2587 320.552 62.4587 320.552 61.584C320.552 60.112 321.128 58.9173 322.28 58C323.432 57.0827 325.16 56.624 327.464 56.624H331.496V56.24C331.496 55.152 331.187 54.352 330.568 53.84C329.949 53.328 329.181 53.072 328.264 53.072C327.432 53.072 326.707 53.2747 326.088 53.68C325.469 54.064 325.085 54.64 324.936 55.408H320.936C321.043 54.256 321.427 53.2533 322.088 52.4C322.771 51.5467 323.645 50.896 324.712 50.448C325.779 49.9787 326.973 49.744 328.296 49.744C330.557 49.744 332.339 50.3093 333.64 51.44C334.941 52.5707 335.592 54.1707 335.592 56.24V66H332.104L331.72 63.44C331.251 64.2933 330.589 64.9973 329.736 65.552C328.904 66.1067 327.827 66.384 326.504 66.384ZM327.432 63.184C328.605 63.184 329.512 62.8 330.152 62.032C330.813 61.264 331.229 60.3147 331.4 59.184H327.912C326.824 59.184 326.045 59.3867 325.576 59.792C325.107 60.176 324.872 60.656 324.872 61.232C324.872 61.8507 325.107 62.3307 325.576 62.672C326.045 63.0133 326.664 63.184 327.432 63.184ZM346.354 66C344.69 66 343.357 65.5947 342.354 64.784C341.351 63.9733 340.85 62.5333 340.85 60.464V53.552H338.13V50.128H340.85L341.33 45.872H344.946V50.128H349.234V53.552H344.946V60.496C344.946 61.264 345.106 61.7973 345.426 62.096C345.767 62.3733 346.343 62.512 347.154 62.512H349.138V66H346.354ZM354.959 47.664C354.212 47.664 353.594 47.44 353.103 46.992C352.634 46.544 352.399 45.9787 352.399 45.296C352.399 44.6133 352.634 44.0587 353.103 43.632C353.594 43.184 354.212 42.96 354.959 42.96C355.706 42.96 356.314 43.184 356.783 43.632C357.274 44.0587 357.519 44.6133 357.519 45.296C357.519 45.9787 357.274 46.544 356.783 46.992C356.314 47.44 355.706 47.664 354.959 47.664ZM352.911 66V50.128H357.007V66H352.911ZM368.898 66.384C367.362 66.384 365.975 66.032 364.738 65.328C363.522 64.624 362.551 63.6533 361.826 62.416C361.122 61.1573 360.77 59.7067 360.77 58.064C360.77 56.4213 361.133 54.9813 361.858 53.744C362.583 52.4853 363.554 51.504 364.77 50.8C366.007 50.096 367.394 49.744 368.93 49.744C370.445 49.744 371.81 50.096 373.026 50.8C374.263 51.504 375.234 52.4853 375.938 53.744C376.663 54.9813 377.026 56.4213 377.026 58.064C377.026 59.7067 376.663 61.1573 375.938 62.416C375.234 63.6533 374.263 64.624 373.026 65.328C371.789 66.032 370.413 66.384 368.898 66.384ZM368.898 62.832C369.965 62.832 370.893 62.4373 371.682 61.648C372.471 60.8373 372.866 59.6427 372.866 58.064C372.866 56.4853 372.471 55.3013 371.682 54.512C370.893 53.7013 369.975 53.296 368.93 53.296C367.842 53.296 366.903 53.7013 366.114 54.512C365.346 55.3013 364.962 56.4853 364.962 58.064C364.962 59.6427 365.346 60.8373 366.114 61.648C366.903 62.4373 367.831 62.832 368.898 62.832ZM380.688 66V50.128H384.304L384.624 52.816C385.115 51.8773 385.819 51.1307 386.736 50.576C387.675 50.0213 388.774 49.744 390.032 49.744C391.995 49.744 393.52 50.3627 394.608 51.6C395.696 52.8373 396.24 54.6507 396.24 57.04V66H392.144V57.424C392.144 56.0587 391.867 55.0133 391.312 54.288C390.758 53.5627 389.894 53.2 388.72 53.2C387.568 53.2 386.619 53.6053 385.872 54.416C385.147 55.2267 384.784 56.3573 384.784 57.808V66H380.688ZM408.518 66V53.552H406.342V50.128H408.518V48.272C408.518 46.352 408.998 44.9867 409.958 44.176C410.939 43.3653 412.262 42.96 413.926 42.96H415.686V46.448H414.566C413.862 46.448 413.361 46.5867 413.062 46.864C412.763 47.1413 412.614 47.6107 412.614 48.272V50.128H416.038V53.552H412.614V66H408.518ZM426.273 66.384C424.737 66.384 423.35 66.032 422.113 65.328C420.897 64.624 419.926 63.6533 419.201 62.416C418.497 61.1573 418.145 59.7067 418.145 58.064C418.145 56.4213 418.508 54.9813 419.233 53.744C419.958 52.4853 420.929 51.504 422.145 50.8C423.382 50.096 424.769 49.744 426.305 49.744C427.82 49.744 429.185 50.096 430.401 50.8C431.638 51.504 432.609 52.4853 433.313 53.744C434.038 54.9813 434.401 56.4213 434.401 58.064C434.401 59.7067 434.038 61.1573 433.313 62.416C432.609 63.6533 431.638 64.624 430.401 65.328C429.164 66.032 427.788 66.384 426.273 66.384ZM426.273 62.832C427.34 62.832 428.268 62.4373 429.057 61.648C429.846 60.8373 430.241 59.6427 430.241 58.064C430.241 56.4853 429.846 55.3013 429.057 54.512C428.268 53.7013 427.35 53.296 426.305 53.296C425.217 53.296 424.278 53.7013 423.489 54.512C422.721 55.3013 422.337 56.4853 422.337 58.064C422.337 59.6427 422.721 60.8373 423.489 61.648C424.278 62.4373 425.206 62.832 426.273 62.832ZM438.063 66V50.128H441.711L442.095 53.104C442.671 52.08 443.45 51.2693 444.431 50.672C445.434 50.0533 446.607 49.744 447.951 49.744V54.064H446.799C445.903 54.064 445.103 54.2027 444.399 54.48C443.695 54.7573 443.141 55.2373 442.735 55.92C442.351 56.6027 442.159 57.552 442.159 58.768V66H438.063ZM228.085 108.384C225.823 108.384 223.882 107.904 222.261 106.944C220.639 105.963 219.391 104.608 218.517 102.88C217.642 101.131 217.205 99.1147 217.205 96.832C217.205 94.5493 217.642 92.5333 218.517 90.784C219.391 89.0347 220.639 87.6693 222.261 86.688C223.882 85.7067 225.823 85.216 228.085 85.216C230.773 85.216 232.97 85.888 234.677 87.232C236.405 88.5547 237.482 90.4213 237.909 92.832H233.397C233.119 91.616 232.522 90.6667 231.605 89.984C230.709 89.28 229.514 88.928 228.021 88.928C225.951 88.928 224.33 89.632 223.157 91.04C221.983 92.448 221.397 94.3787 221.397 96.832C221.397 99.2853 221.983 101.216 223.157 102.624C224.33 104.011 225.951 104.704 228.021 104.704C229.514 104.704 230.709 104.384 231.605 103.744C232.522 103.083 233.119 102.176 233.397 101.024H237.909C237.482 103.328 236.405 105.131 234.677 106.432C232.97 107.733 230.773 108.384 228.085 108.384ZM249.054 108.384C247.518 108.384 246.132 108.032 244.894 107.328C243.678 106.624 242.708 105.653 241.982 104.416C241.278 103.157 240.926 101.707 240.926 100.064C240.926 98.4213 241.289 96.9813 242.014 95.744C242.74 94.4853 243.71 93.504 244.926 92.8C246.164 92.096 247.55 91.744 249.086 91.744C250.601 91.744 251.966 92.096 253.182 92.8C254.42 93.504 255.39 94.4853 256.094 95.744C256.82 96.9813 257.182 98.4213 257.182 100.064C257.182 101.707 256.82 103.157 256.094 104.416C255.39 105.653 254.42 106.624 253.182 107.328C251.945 108.032 250.569 108.384 249.054 108.384ZM249.054 104.832C250.121 104.832 251.049 104.437 251.838 103.648C252.628 102.837 253.022 101.643 253.022 100.064C253.022 98.4853 252.628 97.3013 251.838 96.512C251.049 95.7013 250.132 95.296 249.086 95.296C247.998 95.296 247.06 95.7013 246.27 96.512C245.502 97.3013 245.118 98.4853 245.118 100.064C245.118 101.643 245.502 102.837 246.27 103.648C247.06 104.437 247.988 104.832 249.054 104.832ZM260.845 108V92.128H264.461L264.813 94.272C265.325 93.504 265.997 92.896 266.829 92.448C267.682 91.9787 268.663 91.744 269.773 91.744C272.226 91.744 273.965 92.6933 274.989 94.592C275.565 93.7173 276.333 93.024 277.293 92.512C278.274 92 279.341 91.744 280.493 91.744C282.562 91.744 284.151 92.3627 285.261 93.6C286.37 94.8373 286.925 96.6507 286.925 99.04V108H282.829V99.424C282.829 98.0587 282.562 97.0133 282.029 96.288C281.517 95.5627 280.717 95.2 279.629 95.2C278.519 95.2 277.623 95.6053 276.941 96.416C276.279 97.2267 275.949 98.3573 275.949 99.808V108H271.853V99.424C271.853 98.0587 271.586 97.0133 271.053 96.288C270.519 95.5627 269.698 95.2 268.589 95.2C267.501 95.2 266.615 95.6053 265.933 96.416C265.271 97.2267 264.941 98.3573 264.941 99.808V108H260.845ZM290.813 115.04V92.128H294.461L294.909 94.4C295.421 93.696 296.093 93.0773 296.925 92.544C297.779 92.0107 298.877 91.744 300.221 91.744C301.715 91.744 303.048 92.1067 304.221 92.832C305.395 93.5573 306.323 94.5493 307.005 95.808C307.688 97.0667 308.029 98.496 308.029 100.096C308.029 101.696 307.688 103.125 307.005 104.384C306.323 105.621 305.395 106.603 304.221 107.328C303.048 108.032 301.715 108.384 300.221 108.384C299.027 108.384 297.981 108.16 297.085 107.712C296.189 107.264 295.464 106.635 294.909 105.824V115.04H290.813ZM299.357 104.8C300.659 104.8 301.736 104.363 302.589 103.488C303.443 102.613 303.869 101.483 303.869 100.096C303.869 98.7093 303.443 97.568 302.589 96.672C301.736 95.776 300.659 95.328 299.357 95.328C298.035 95.328 296.947 95.776 296.093 96.672C295.261 97.5467 294.845 98.6773 294.845 100.064C294.845 101.451 295.261 102.592 296.093 103.488C296.947 104.363 298.035 104.8 299.357 104.8ZM317.64 108.384C315.656 108.384 314.12 107.765 313.032 106.528C311.966 105.291 311.432 103.477 311.432 101.088V92.128H315.496V100.704C315.496 102.069 315.774 103.115 316.328 103.84C316.883 104.565 317.758 104.928 318.952 104.928C320.083 104.928 321.011 104.523 321.736 103.712C322.483 102.901 322.856 101.771 322.856 100.32V92.128H326.952V108H323.336L323.016 105.312C322.526 106.251 321.811 106.997 320.872 107.552C319.955 108.107 318.878 108.384 317.64 108.384ZM338.229 108C336.565 108 335.232 107.595 334.229 106.784C333.226 105.973 332.725 104.533 332.725 102.464V95.552H330.005V92.128H332.725L333.205 87.872H336.821V92.128H341.109V95.552H336.821V102.496C336.821 103.264 336.981 103.797 337.301 104.096C337.642 104.373 338.218 104.512 339.029 104.512H341.013V108H338.229ZM346.834 89.664C346.087 89.664 345.469 89.44 344.978 88.992C344.509 88.544 344.274 87.9787 344.274 87.296C344.274 86.6133 344.509 86.0587 344.978 85.632C345.469 85.184 346.087 84.96 346.834 84.96C347.581 84.96 348.189 85.184 348.658 85.632C349.149 86.0587 349.394 86.6133 349.394 87.296C349.394 87.9787 349.149 88.544 348.658 88.992C348.189 89.44 347.581 89.664 346.834 89.664ZM344.786 108V92.128H348.882V108H344.786ZM353.157 108V92.128H356.773L357.093 94.816C357.584 93.8773 358.288 93.1307 359.205 92.576C360.144 92.0213 361.242 91.744 362.501 91.744C364.464 91.744 365.989 92.3627 367.077 93.6C368.165 94.8373 368.709 96.6507 368.709 99.04V108H364.613V99.424C364.613 98.0587 364.336 97.0133 363.781 96.288C363.226 95.5627 362.362 95.2 361.189 95.2C360.037 95.2 359.088 95.6053 358.341 96.416C357.616 97.2267 357.253 98.3573 357.253 99.808V108H353.157ZM379.346 103.264C378.578 103.264 377.863 103.179 377.202 103.008L376.018 104.192C376.381 104.384 376.871 104.544 377.49 104.672C378.109 104.8 379.111 104.928 380.498 105.056C382.61 105.248 384.146 105.749 385.106 106.56C386.066 107.371 386.546 108.491 386.546 109.92C386.546 110.859 386.29 111.744 385.778 112.576C385.266 113.429 384.477 114.112 383.41 114.624C382.343 115.157 380.978 115.424 379.314 115.424C377.053 115.424 375.229 114.997 373.842 114.144C372.455 113.312 371.762 112.053 371.762 110.368C371.762 108.939 372.455 107.701 373.842 106.656C373.415 106.464 373.042 106.261 372.722 106.048C372.423 105.835 372.157 105.611 371.922 105.376V104.64L374.706 101.696C373.469 100.608 372.85 99.2107 372.85 97.504C372.85 96.4373 373.106 95.4667 373.618 94.592C374.151 93.7173 374.898 93.024 375.858 92.512C376.818 92 377.981 91.744 379.346 91.744C380.242 91.744 381.074 91.872 381.842 92.128H387.858V94.624L385.138 94.816C385.565 95.6267 385.778 96.5227 385.778 97.504C385.778 98.5707 385.522 99.5413 385.01 100.416C384.498 101.291 383.751 101.984 382.77 102.496C381.81 103.008 380.669 103.264 379.346 103.264ZM379.346 100.128C380.178 100.128 380.861 99.904 381.394 99.456C381.949 99.008 382.226 98.368 382.226 97.536C382.226 96.704 381.949 96.064 381.394 95.616C380.861 95.168 380.178 94.944 379.346 94.944C378.471 94.944 377.767 95.168 377.234 95.616C376.701 96.064 376.434 96.704 376.434 97.536C376.434 98.368 376.701 99.008 377.234 99.456C377.767 99.904 378.471 100.128 379.346 100.128ZM375.506 109.952C375.506 110.741 375.869 111.328 376.594 111.712C377.341 112.117 378.247 112.32 379.314 112.32C380.338 112.32 381.17 112.107 381.81 111.68C382.45 111.275 382.77 110.72 382.77 110.016C382.77 109.44 382.557 108.96 382.13 108.576C381.725 108.192 380.903 107.957 379.666 107.872C378.791 107.808 377.981 107.712 377.234 107.584C376.615 107.925 376.167 108.299 375.89 108.704C375.634 109.109 375.506 109.525 375.506 109.952ZM398.566 108V85.6H403.43L410.566 99.808L417.606 85.6H422.47V108H418.374V92.544L412.134 104.8H408.902L402.662 92.544V108H398.566ZM432.192 108.384C430.826 108.384 429.706 108.171 428.832 107.744C427.957 107.296 427.306 106.709 426.88 105.984C426.453 105.259 426.24 104.459 426.24 103.584C426.24 102.112 426.816 100.917 427.968 100C429.12 99.0827 430.848 98.624 433.152 98.624H437.184V98.24C437.184 97.152 436.874 96.352 436.256 95.84C435.637 95.328 434.869 95.072 433.952 95.072C433.12 95.072 432.394 95.2747 431.776 95.68C431.157 96.064 430.773 96.64 430.624 97.408H426.624C426.73 96.256 427.114 95.2533 427.776 94.4C428.458 93.5467 429.333 92.896 430.4 92.448C431.466 91.9787 432.661 91.744 433.984 91.744C436.245 91.744 438.026 92.3093 439.328 93.44C440.629 94.5707 441.28 96.1707 441.28 98.24V108H437.792L437.408 105.44C436.938 106.293 436.277 106.997 435.424 107.552C434.592 108.107 433.514 108.384 432.192 108.384ZM433.12 105.184C434.293 105.184 435.2 104.8 435.84 104.032C436.501 103.264 436.917 102.315 437.088 101.184H433.6C432.512 101.184 431.733 101.387 431.264 101.792C430.794 102.176 430.56 102.656 430.56 103.232C430.56 103.851 430.794 104.331 431.264 104.672C431.733 105.013 432.352 105.184 433.12 105.184ZM452.964 108.384C451.343 108.384 449.914 108.032 448.676 107.328C447.439 106.624 446.458 105.643 445.732 104.384C445.028 103.125 444.676 101.685 444.676 100.064C444.676 98.4427 445.028 97.0027 445.732 95.744C446.458 94.4853 447.439 93.504 448.676 92.8C449.914 92.096 451.343 91.744 452.964 91.744C454.991 91.744 456.698 92.2773 458.084 93.344C459.471 94.3893 460.356 95.84 460.74 97.696H456.42C456.207 96.928 455.78 96.3307 455.14 95.904C454.522 95.456 453.786 95.232 452.932 95.232C451.802 95.232 450.842 95.6587 450.052 96.512C449.263 97.3653 448.868 98.5493 448.868 100.064C448.868 101.579 449.263 102.763 450.052 103.616C450.842 104.469 451.802 104.896 452.932 104.896C453.786 104.896 454.522 104.683 455.14 104.256C455.78 103.829 456.207 103.221 456.42 102.432H460.74C460.356 104.224 459.471 105.664 458.084 106.752C456.698 107.84 454.991 108.384 452.964 108.384ZM464.376 108V84.96H468.472V94.56C469.005 93.6853 469.72 93.0027 470.616 92.512C471.533 92 472.579 91.744 473.752 91.744C475.715 91.744 477.229 92.3627 478.296 93.6C479.384 94.8373 479.928 96.6507 479.928 99.04V108H475.864V99.424C475.864 98.0587 475.587 97.0133 475.032 96.288C474.499 95.5627 473.645 95.2 472.472 95.2C471.32 95.2 470.36 95.6053 469.592 96.416C468.845 97.2267 468.472 98.3573 468.472 99.808V108H464.376ZM486.053 89.664C485.306 89.664 484.687 89.44 484.197 88.992C483.727 88.544 483.493 87.9787 483.493 87.296C483.493 86.6133 483.727 86.0587 484.197 85.632C484.687 85.184 485.306 84.96 486.053 84.96C486.799 84.96 487.407 85.184 487.877 85.632C488.367 86.0587 488.613 86.6133 488.613 87.296C488.613 87.9787 488.367 88.544 487.877 88.992C487.407 89.44 486.799 89.664 486.053 89.664ZM484.005 108V92.128H488.101V108H484.005ZM492.376 108V92.128H495.992L496.312 94.816C496.803 93.8773 497.507 93.1307 498.424 92.576C499.363 92.0213 500.461 91.744 501.72 91.744C503.683 91.744 505.208 92.3627 506.296 93.6C507.384 94.8373 507.928 96.6507 507.928 99.04V108H503.832V99.424C503.832 98.0587 503.555 97.0133 503 96.288C502.445 95.5627 501.581 95.2 500.408 95.2C499.256 95.2 498.307 95.6053 497.56 96.416C496.835 97.2267 496.472 98.3573 496.472 99.808V108H492.376ZM519.557 108.384C517.957 108.384 516.538 108.043 515.301 107.36C514.063 106.677 513.093 105.717 512.389 104.48C511.685 103.243 511.333 101.813 511.333 100.192C511.333 98.5493 511.674 97.088 512.357 95.808C513.061 94.528 514.021 93.536 515.237 92.832C516.474 92.1067 517.925 91.744 519.589 91.744C521.146 91.744 522.522 92.0853 523.717 92.768C524.911 93.4507 525.839 94.3893 526.501 95.584C527.183 96.7573 527.525 98.0693 527.525 99.52C527.525 99.7547 527.514 100 527.493 100.256C527.493 100.512 527.482 100.779 527.461 101.056H515.397C515.482 102.293 515.909 103.264 516.677 103.968C517.466 104.672 518.415 105.024 519.525 105.024C520.357 105.024 521.05 104.843 521.605 104.48C522.181 104.096 522.607 103.605 522.885 103.008H527.045C526.746 104.011 526.245 104.928 525.541 105.76C524.858 106.571 524.005 107.211 522.981 107.68C521.978 108.149 520.837 108.384 519.557 108.384ZM519.589 95.072C518.586 95.072 517.701 95.36 516.933 95.936C516.165 96.4907 515.674 97.344 515.461 98.496H523.365C523.301 97.4507 522.917 96.6187 522.213 96C521.509 95.3813 520.634 95.072 519.589 95.072ZM530.97 108V92.128H534.618L535.002 95.104C535.578 94.08 536.356 93.2693 537.338 92.672C538.34 92.0533 539.514 91.744 540.858 91.744V96.064H539.706C538.81 96.064 538.01 96.2027 537.306 96.48C536.602 96.7573 536.047 97.2373 535.642 97.92C535.258 98.6027 535.066 99.552 535.066 100.768V108H530.97ZM545.641 115.04L549.321 106.944H548.361L542.185 92.128H546.633L551.081 103.296L555.721 92.128H560.073L549.993 115.04H545.641Z" fill="white"/>
<path d="M222.605 158L216.293 141.2H218.477L223.781 155.864L229.133 141.2H231.269L224.957 158H222.605ZM233.572 158V141.2H235.588V158H233.572ZM243.086 158V142.856H238.07V141.2H250.118V142.856H245.102V158H243.086ZM264.283 158.288C263.051 158.288 261.979 158.064 261.067 157.616C260.155 157.168 259.451 156.544 258.955 155.744C258.459 154.944 258.211 154.016 258.211 152.96H260.323C260.323 153.616 260.475 154.224 260.779 154.784C261.083 155.328 261.523 155.768 262.099 156.104C262.691 156.424 263.419 156.584 264.283 156.584C265.419 156.584 266.299 156.312 266.923 155.768C267.547 155.224 267.859 154.544 267.859 153.728C267.859 153.056 267.715 152.52 267.427 152.12C267.139 151.704 266.747 151.368 266.251 151.112C265.771 150.856 265.211 150.632 264.571 150.44C263.947 150.248 263.291 150.032 262.603 149.792C261.307 149.344 260.347 148.792 259.723 148.136C259.099 147.464 258.787 146.592 258.787 145.52C258.771 144.624 258.979 143.832 259.411 143.144C259.843 142.44 260.451 141.896 261.235 141.512C262.035 141.112 262.979 140.912 264.067 140.912C265.139 140.912 266.067 141.112 266.851 141.512C267.651 141.912 268.267 142.464 268.699 143.168C269.147 143.872 269.379 144.672 269.395 145.568H267.283C267.283 145.104 267.163 144.648 266.923 144.2C266.683 143.736 266.315 143.36 265.819 143.072C265.339 142.784 264.731 142.64 263.995 142.64C263.083 142.624 262.331 142.856 261.739 143.336C261.163 143.816 260.875 144.48 260.875 145.328C260.875 146.048 261.075 146.6 261.475 146.984C261.891 147.368 262.467 147.688 263.203 147.944C263.939 148.184 264.787 148.464 265.747 148.784C266.547 149.072 267.267 149.408 267.907 149.792C268.547 150.176 269.043 150.672 269.395 151.28C269.763 151.888 269.947 152.664 269.947 153.608C269.947 154.408 269.739 155.168 269.323 155.888C268.907 156.592 268.275 157.168 267.427 157.616C266.595 158.064 265.547 158.288 264.283 158.288ZM277.39 158C276.302 158 275.446 157.736 274.822 157.208C274.198 156.68 273.886 155.728 273.886 154.352V147.8H271.822V146.096H273.886L274.15 143.24H275.902V146.096H279.406V147.8H275.902V154.352C275.902 155.104 276.054 155.616 276.358 155.888C276.662 156.144 277.198 156.272 277.966 156.272H279.214V158H277.39ZM286.312 158.288C284.904 158.288 283.784 157.864 282.952 157.016C282.12 156.152 281.704 154.832 281.704 153.056V146.096H283.72V152.84C283.72 155.32 284.736 156.56 286.768 156.56C287.808 156.56 288.664 156.192 289.336 155.456C290.024 154.704 290.368 153.64 290.368 152.264V146.096H292.384V158H290.56L290.416 155.864C290.048 156.616 289.496 157.208 288.76 157.64C288.04 158.072 287.224 158.288 286.312 158.288ZM301.102 158.288C299.918 158.288 298.878 158.016 297.982 157.472C297.102 156.928 296.414 156.184 295.918 155.24C295.438 154.296 295.198 153.224 295.198 152.024C295.198 150.824 295.446 149.76 295.942 148.832C296.438 147.888 297.126 147.152 298.006 146.624C298.886 146.08 299.926 145.808 301.126 145.808C302.102 145.808 302.966 146.008 303.718 146.408C304.47 146.808 305.054 147.368 305.47 148.088V140.72H307.486V158H305.662L305.47 156.032C305.086 156.608 304.534 157.128 303.814 157.592C303.094 158.056 302.19 158.288 301.102 158.288ZM301.318 156.536C302.118 156.536 302.822 156.352 303.43 155.984C304.054 155.6 304.534 155.072 304.87 154.4C305.222 153.728 305.398 152.944 305.398 152.048C305.398 151.152 305.222 150.368 304.87 149.696C304.534 149.024 304.054 148.504 303.43 148.136C302.822 147.752 302.118 147.56 301.318 147.56C300.534 147.56 299.83 147.752 299.206 148.136C298.598 148.504 298.118 149.024 297.766 149.696C297.43 150.368 297.262 151.152 297.262 152.048C297.262 152.944 297.43 153.728 297.766 154.4C298.118 155.072 298.598 155.6 299.206 155.984C299.83 156.352 300.534 156.536 301.318 156.536ZM316.124 158.288C314.988 158.288 313.98 158.032 313.1 157.52C312.22 156.992 311.524 156.264 311.012 155.336C310.516 154.408 310.268 153.312 310.268 152.048C310.268 150.8 310.516 149.712 311.012 148.784C311.508 147.84 312.196 147.112 313.076 146.6C313.972 146.072 315.004 145.808 316.172 145.808C317.324 145.808 318.316 146.072 319.148 146.6C319.996 147.112 320.644 147.792 321.092 148.64C321.54 149.488 321.764 150.4 321.764 151.376C321.764 151.552 321.756 151.728 321.74 151.904C321.74 152.08 321.74 152.28 321.74 152.504H312.26C312.308 153.416 312.516 154.176 312.884 154.784C313.268 155.376 313.74 155.824 314.3 156.128C314.876 156.432 315.484 156.584 316.124 156.584C316.956 156.584 317.652 156.392 318.212 156.008C318.772 155.624 319.18 155.104 319.436 154.448H321.428C321.108 155.552 320.492 156.472 319.58 157.208C318.684 157.928 317.532 158.288 316.124 158.288ZM316.124 147.512C315.164 147.512 314.308 147.808 313.556 148.4C312.82 148.976 312.396 149.824 312.284 150.944H319.772C319.724 149.872 319.356 149.032 318.668 148.424C317.98 147.816 317.132 147.512 316.124 147.512ZM324.436 158V146.096H326.26L326.38 148.232C326.764 147.48 327.316 146.888 328.036 146.456C328.756 146.024 329.572 145.808 330.484 145.808C331.892 145.808 333.012 146.24 333.844 147.104C334.692 147.952 335.116 149.264 335.116 151.04V158H333.1V151.256C333.1 148.776 332.076 147.536 330.028 147.536C329.004 147.536 328.148 147.912 327.46 148.664C326.788 149.4 326.452 150.456 326.452 151.832V158H324.436ZM342.875 158C341.787 158 340.931 157.736 340.307 157.208C339.683 156.68 339.371 155.728 339.371 154.352V147.8H337.307V146.096H339.371L339.635 143.24H341.387V146.096H344.891V147.8H341.387V154.352C341.387 155.104 341.539 155.616 341.843 155.888C342.147 156.144 342.683 156.272 343.451 156.272H344.699V158H342.875ZM361.291 158.288C359.643 158.288 358.219 157.928 357.019 157.208C355.835 156.472 354.915 155.456 354.259 154.16C353.603 152.848 353.275 151.328 353.275 149.6C353.275 147.888 353.603 146.384 354.259 145.088C354.915 143.776 355.835 142.752 357.019 142.016C358.219 141.28 359.643 140.912 361.291 140.912C363.211 140.912 364.771 141.376 365.971 142.304C367.187 143.216 367.963 144.496 368.299 146.144H366.067C365.811 145.104 365.283 144.272 364.483 143.648C363.699 143.008 362.635 142.688 361.291 142.688C360.091 142.688 359.043 142.968 358.147 143.528C357.251 144.072 356.555 144.864 356.059 145.904C355.579 146.928 355.339 148.16 355.339 149.6C355.339 151.04 355.579 152.28 356.059 153.32C356.555 154.344 357.251 155.136 358.147 155.696C359.043 156.24 360.091 156.512 361.291 156.512C362.635 156.512 363.699 156.208 364.483 155.6C365.283 154.976 365.811 154.152 366.067 153.128H368.299C367.963 154.744 367.187 156.008 365.971 156.92C364.771 157.832 363.211 158.288 361.291 158.288ZM371.077 158V140.72H373.093V148.136C373.493 147.4 374.061 146.832 374.797 146.432C375.533 146.016 376.333 145.808 377.197 145.808C378.573 145.808 379.677 146.24 380.509 147.104C381.341 147.952 381.757 149.264 381.757 151.04V158H379.765V151.256C379.765 148.776 378.765 147.536 376.765 147.536C375.725 147.536 374.853 147.912 374.149 148.664C373.445 149.4 373.093 150.456 373.093 151.832V158H371.077ZM388.771 158.288C387.779 158.288 386.955 158.12 386.299 157.784C385.643 157.448 385.155 157 384.835 156.44C384.515 155.88 384.355 155.272 384.355 154.616C384.355 153.4 384.819 152.464 385.747 151.808C386.675 151.152 387.939 150.824 389.539 150.824H392.755V150.68C392.755 149.64 392.483 148.856 391.939 148.328C391.395 147.784 390.667 147.512 389.755 147.512C388.971 147.512 388.291 147.712 387.715 148.112C387.155 148.496 386.803 149.064 386.659 149.816H384.595C384.675 148.952 384.963 148.224 385.459 147.632C385.971 147.04 386.603 146.592 387.355 146.288C388.107 145.968 388.907 145.808 389.755 145.808C391.419 145.808 392.667 146.256 393.499 147.152C394.347 148.032 394.771 149.208 394.771 150.68V158H392.971L392.851 155.864C392.515 156.536 392.019 157.112 391.363 157.592C390.723 158.056 389.859 158.288 388.771 158.288ZM389.083 156.584C389.851 156.584 390.507 156.384 391.051 155.984C391.611 155.584 392.035 155.064 392.323 154.424C392.611 153.784 392.755 153.112 392.755 152.408V152.384H389.707C388.523 152.384 387.683 152.592 387.187 153.008C386.707 153.408 386.467 153.912 386.467 154.52C386.467 155.144 386.691 155.648 387.139 156.032C387.603 156.4 388.251 156.584 389.083 156.584ZM397.796 163.28V146.096H399.62L399.812 148.064C400.196 147.488 400.74 146.968 401.444 146.504C402.164 146.04 403.076 145.808 404.18 145.808C405.364 145.808 406.396 146.08 407.276 146.624C408.156 147.168 408.836 147.912 409.316 148.856C409.812 149.8 410.06 150.872 410.06 152.072C410.06 153.272 409.812 154.344 409.316 155.288C408.836 156.216 408.148 156.952 407.252 157.496C406.372 158.024 405.34 158.288 404.156 158.288C403.18 158.288 402.308 158.088 401.54 157.688C400.788 157.288 400.212 156.728 399.812 156.008V163.28H397.796ZM403.94 156.536C404.74 156.536 405.444 156.352 406.052 155.984C406.66 155.6 407.14 155.072 407.492 154.4C407.844 153.728 408.02 152.944 408.02 152.048C408.02 151.152 407.844 150.368 407.492 149.696C407.14 149.024 406.66 148.504 406.052 148.136C405.444 147.752 404.74 147.56 403.94 147.56C403.14 147.56 402.436 147.752 401.828 148.136C401.22 148.504 400.74 149.024 400.388 149.696C400.036 150.368 399.86 151.152 399.86 152.048C399.86 152.944 400.036 153.728 400.388 154.4C400.74 155.072 401.22 155.6 401.828 155.984C402.436 156.352 403.14 156.536 403.94 156.536ZM417.101 158C416.013 158 415.157 157.736 414.533 157.208C413.909 156.68 413.597 155.728 413.597 154.352V147.8H411.533V146.096H413.597L413.861 143.24H415.613V146.096H419.117V147.8H415.613V154.352C415.613 155.104 415.765 155.616 416.069 155.888C416.373 156.144 416.909 156.272 417.677 156.272H418.925V158H417.101ZM426.702 158.288C425.566 158.288 424.558 158.032 423.678 157.52C422.798 156.992 422.102 156.264 421.59 155.336C421.094 154.408 420.846 153.312 420.846 152.048C420.846 150.8 421.094 149.712 421.59 148.784C422.086 147.84 422.774 147.112 423.654 146.6C424.55 146.072 425.582 145.808 426.75 145.808C427.902 145.808 428.894 146.072 429.726 146.6C430.574 147.112 431.222 147.792 431.67 148.64C432.118 149.488 432.342 150.4 432.342 151.376C432.342 151.552 432.334 151.728 432.318 151.904C432.318 152.08 432.318 152.28 432.318 152.504H422.838C422.886 153.416 423.094 154.176 423.462 154.784C423.846 155.376 424.318 155.824 424.878 156.128C425.454 156.432 426.062 156.584 426.702 156.584C427.534 156.584 428.23 156.392 428.79 156.008C429.35 155.624 429.758 155.104 430.014 154.448H432.006C431.686 155.552 431.07 156.472 430.158 157.208C429.262 157.928 428.11 158.288 426.702 158.288ZM426.702 147.512C425.742 147.512 424.886 147.808 424.134 148.4C423.398 148.976 422.974 149.824 422.862 150.944H430.35C430.302 149.872 429.934 149.032 429.246 148.424C428.558 147.816 427.71 147.512 426.702 147.512ZM435.014 158V146.096H436.838L437.006 148.376C437.374 147.592 437.934 146.968 438.686 146.504C439.438 146.04 440.366 145.808 441.47 145.808V147.92H440.918C440.214 147.92 439.566 148.048 438.974 148.304C438.382 148.544 437.91 148.96 437.558 149.552C437.206 150.144 437.03 150.96 437.03 152V158H435.014Z" fill="white"/>
</g>
<defs>
<clipPath id="clip0_280_4983">
<rect width="565.765" height="199.764" fill="white"/>
</clipPath>
</defs>
</svg>
